<svg xmlns="http://www.w3.org/2000/svg" viewBox="0 0 320 200" width="320" height="200" role="img" aria-label="frequency-pitch">
  <defs>
    <linearGradient id="bg" x1="0" y1="0" x2="1" y2="1"><stop offset="0" stop-color="#0c4a6e"/><stop offset="1" stop-color="#1e1b4b"/></linearGradient>
    <pattern id="grid" width="20" height="20" patternUnits="userSpaceOnUse"><path d="M20 0H0V20" fill="none" stroke="#ffffff" stroke-opacity=".06"/></pattern>
  </defs>
  <rect width="320" height="200" fill="url(#bg)"/>
  <rect width="320" height="200" fill="url(#grid)"/>
  <polyline points="20.0,65.0 22.0,62.3 24.0,59.6 26.0,57.0 28.0,54.5 30.0,52.0 32.0,49.6 34.0,47.4 36.0,45.3 38.0,43.3 40.0,41.5 42.0,40.0 44.0,38.6 46.0,37.4 48.0,36.5 50.0,35.8 52.0,35.3 54.0,35.0 56.0,35.0 58.0,35.3 60.0,35.8 62.0,36.5 64.0,37.4 66.0,38.6 68.0,40.0 70.0,41.5 72.0,43.3 74.0,45.3 76.0,47.4 78.0,49.6 80.0,52.0 82.0,54.5 84.0,57.0 86.0,59.6 88.0,62.3 90.0,65.0 92.0,67.7 94.0,70.4 96.0,73.0 98.0,75.5 100.0,78.0 102.0,80.4 104.0,82.6 106.0,84.7 108.0,86.7 110.0,88.5 112.0,90.0 114.0,91.4 116.0,92.6 118.0,93.5 120.0,94.2 122.0,94.7 124.0,95.0 126.0,95.0 128.0,94.7 130.0,94.2 132.0,93.5 134.0,92.6 136.0,91.4 138.0,90.0 140.0,88.5 142.0,86.7 144.0,84.7 146.0,82.6 148.0,80.4 150.0,78.0 152.0,75.5 154.0,73.0 156.0,70.4 158.0,67.7 160.0,65.0 162.0,62.3 164.0,59.6 166.0,57.0 168.0,54.5 170.0,52.0 172.0,49.6 174.0,47.4 176.0,45.3 178.0,43.3 180.0,41.5 182.0,40.0 184.0,38.6 186.0,37.4 188.0,36.5 190.0,35.8 192.0,35.3 194.0,35.0 196.0,35.0 198.0,35.3 200.0,35.8 202.0,36.5 204.0,37.4 206.0,38.6 208.0,40.0 210.0,41.5 212.0,43.3 214.0,45.3 216.0,47.4 218.0,49.6 220.0,52.0 222.0,54.5 224.0,57.0 226.0,59.6 228.0,62.3 230.0,65.0 232.0,67.7 234.0,70.4 236.0,73.0 238.0,75.5 240.0,78.0 242.0,80.4 244.0,82.6 246.0,84.7 248.0,86.7 250.0,88.5 252.0,90.0 254.0,91.4 256.0,92.6 258.0,93.5 260.0,94.2 262.0,94.7 264.0,95.0 266.0,95.0 268.0,94.7 270.0,94.2 272.0,93.5 274.0,92.6 276.0,91.4 278.0,90.0 280.0,88.5 282.0,86.7 284.0,84.7 286.0,82.6 288.0,80.4 290.0,78.0 292.0,75.5 294.0,73.0 296.0,70.4 298.0,67.7 300.0,65.0" fill="none" stroke="#38bdf8" stroke-width="3" stroke-opacity="1" stroke-linecap="round"/>
  <polyline points="20.0,140.0 22.0,130.7 24.0,122.4 26.0,115.7 28.0,111.5 30.0,110.0 32.0,111.5 34.0,115.7 36.0,122.4 38.0,130.7 40.0,140.0 42.0,149.3 44.0,157.6 46.0,164.3 48.0,168.5 50.0,170.0 52.0,168.5 54.0,164.3 56.0,157.6 58.0,149.3 60.0,140.0 62.0,130.7 64.0,122.4 66.0,115.7 68.0,111.5 70.0,110.0 72.0,111.5 74.0,115.7 76.0,122.4 78.0,130.7 80.0,140.0 82.0,149.3 84.0,157.6 86.0,164.3 88.0,168.5 90.0,170.0 92.0,168.5 94.0,164.3 96.0,157.6 98.0,149.3 100.0,140.0 102.0,130.7 104.0,122.4 106.0,115.7 108.0,111.5 110.0,110.0 112.0,111.5 114.0,115.7 116.0,122.4 118.0,130.7 120.0,140.0 122.0,149.3 124.0,157.6 126.0,164.3 128.0,168.5 130.0,170.0 132.0,168.5 134.0,164.3 136.0,157.6 138.0,149.3 140.0,140.0 142.0,130.7 144.0,122.4 146.0,115.7 148.0,111.5 150.0,110.0 152.0,111.5 154.0,115.7 156.0,122.4 158.0,130.7 160.0,140.0 162.0,149.3 164.0,157.6 166.0,164.3 168.0,168.5 170.0,170.0 172.0,168.5 174.0,164.3 176.0,157.6 178.0,149.3 180.0,140.0 182.0,130.7 184.0,122.4 186.0,115.7 188.0,111.5 190.0,110.0 192.0,111.5 194.0,115.7 196.0,122.4 198.0,130.7 200.0,140.0 202.0,149.3 204.0,157.6 206.0,164.3 208.0,168.5 210.0,170.0 212.0,168.5 214.0,164.3 216.0,157.6 218.0,149.3 220.0,140.0 222.0,130.7 224.0,122.4 226.0,115.7 228.0,111.5 230.0,110.0 232.0,111.5 234.0,115.7 236.0,122.4 238.0,130.7 240.0,140.0 242.0,149.3 244.0,157.6 246.0,164.3 248.0,168.5 250.0,170.0 252.0,168.5 254.0,164.3 256.0,157.6 258.0,149.3 260.0,140.0 262.0,130.7 264.0,122.4 266.0,115.7 268.0,111.5 270.0,110.0 272.0,111.5 274.0,115.7 276.0,122.4 278.0,130.7 280.0,140.0 282.0,149.3 284.0,157.6 286.0,164.3 288.0,168.5 290.0,170.0 292.0,168.5 294.0,164.3 296.0,157.6 298.0,149.3 300.0,140.0" fill="none" stroke="#f472b6" stroke-width="3" stroke-opacity="1" stroke-linecap="round"/>
  <text x="300" y="30" fill="#fff" fill-opacity=".7" font-family="sans-serif" font-size="13" text-anchor="end">low pitch</text><text x="300" y="186" fill="#fff" fill-opacity=".7" font-family="sans-serif" font-size="13" text-anchor="end">high pitch</text>
</svg>
