<svg xmlns="http://www.w3.org/2000/svg" viewBox="0 0 320 200" width="320" height="200" role="img" aria-label="pinhole camera">
  <defs><linearGradient id="bg" x1="0" y1="0" x2="1" y2="1"><stop offset="0" stop-color="#0c1a3a"/><stop offset="1" stop-color="#15315f"/></linearGradient><pattern id="grid" width="20" height="20" patternUnits="userSpaceOnUse"><path d="M20 0H0V20" fill="none" stroke="#ffffff" stroke-opacity=".06"/></pattern></defs><rect width="320" height="200" fill="url(#bg)"/><rect width="320" height="200" fill="url(#grid)"/>
  <rect x="190" y="50" width="100" height="100" fill="#0b1020" stroke="#a5b4fc" stroke-width="3"/>
  <rect x="186" y="96" width="8" height="8" fill="#15315f"/>
  <line x1="290" y1="50" x2="290" y2="150" stroke="#e2e8f0" stroke-width="4"/>
  <rect x="44" y="92" width="16" height="58" fill="#f8fafc"/><path d="M52 60q10 18 6 30q-6 4-12 0q-4-12 6-30z" fill="#fbbf24"/>
  <polygon points="52,60 190,100 290,130" fill="#fbbf24" fill-opacity=".18"/><line x1="52" y1="60" x2="290" y2="128" stroke="#fbbf24" stroke-width="2"/>
  <line x1="52" y1="150" x2="290" y2="80" stroke="#38bdf8" stroke-width="2"/>
  <rect x="283" y="80" width="6" height="30" fill="#f8fafc" opacity=".8"/><path d="M286 128q4-8 2-14h-4q-2 6 2 14z" fill="#fbbf24"/>
</svg>
