<svg xmlns="http://www.w3.org/2000/svg" viewBox="0 0 320 200" width="320" height="200" role="img" aria-label="refraction-glass-slab">
  <defs><linearGradient id="bg" x1="0" y1="0" x2="1" y2="1"><stop offset="0" stop-color="#083344"/><stop offset="1" stop-color="#0f172a"/></linearGradient></defs>
  <rect width="320" height="200" fill="url(#bg)"/>
  <rect x="0" y="70" width="320" height="60" fill="#7dd3fc" fill-opacity=".2"/>
  <path d="M0 70h320M0 130h320" stroke="#38bdf8" stroke-width="2"/>
  <path d="M120 20v80M148 100v80" stroke="#94a3b8" stroke-width="1.2" stroke-dasharray="5 4"/>
  <path d="M70 20L120 70L148 130L198 180" stroke="#f87171" stroke-width="3.5" fill="none" stroke-linejoin="round"/>
  <path d="M120 70L180 130" stroke="#94a3b8" stroke-width="1.3" stroke-dasharray="3 4"/>
  <path d="M120 46a24 24 0 0 0 -17 7" stroke="#fbbf24" stroke-width="2" fill="none"/><text x="100" y="42" font-family="sans-serif" font-size="13" font-weight="700" fill="#fbbf24">i</text>
  <path d="M120 94a24 24 0 0 0 10 -2" stroke="#34d399" stroke-width="2" fill="none"/><text x="130" y="110" font-family="sans-serif" font-size="13" font-weight="700" fill="#34d399">r</text>
  <text x="250" y="40" font-family="sans-serif" font-size="16" font-weight="700" fill="#e2e8f0" text-anchor="middle">sin i ÷ sin r = n</text>
</svg>
