<svg xmlns="http://www.w3.org/2000/svg" viewBox="0 0 320 200" width="320" height="200" role="img" aria-label="seasons-revolution">
  <defs>
    <linearGradient id="bg" x1="0" y1="0" x2="1" y2="1"><stop offset="0" stop-color="#1e3a8a"/><stop offset="1" stop-color="#0f172a"/></linearGradient>
    <pattern id="grid" width="20" height="20" patternUnits="userSpaceOnUse"><path d="M20 0H0V20" fill="none" stroke="#ffffff" stroke-opacity=".06"/></pattern>
  </defs>
  <rect width="320" height="200" fill="url(#bg)"/>
  <rect width="320" height="200" fill="url(#grid)"/>
  <ellipse cx="160" cy="105" rx="130" ry="46" fill="none" stroke="#94a3b8" stroke-dasharray="5 5"/>
  <circle cx="160" cy="105" r="30" fill="#fbbf24"/><circle cx="160" cy="105" r="42" fill="#fbbf24" opacity=".2"/>
  <circle cx="30" cy="105" r="16" fill="#0f2a4a"/><path d="M30 89a16 16 0 0 1 0 32z" fill="#3b82f6"/>
  <circle cx="290" cy="105" r="16" fill="#0f2a4a"/><path d="M290 89a16 16 0 0 0 0 32z" fill="#3b82f6"/>
  <g stroke="#e2e8f0" stroke-width="2.5"><path d="M20 128L40 82"/><path d="M280 128L300 82"/></g>
  <text x="30" y="160" font-family="sans-serif" font-size="12" fill="#fde68a" text-anchor="middle">June</text>
  <text x="290" y="160" font-family="sans-serif" font-size="12" fill="#7dd3fc" text-anchor="middle">Dec</text>
</svg>
